<svg width="126" height="126" viewBox="0 0 126 126" fill="none" xmlns="http://www.w3.org/2000/svg">
<g clip-path="url(#clip0_1_447)">
<path d="M102.986 39.0539C102.612 39.0559 102.246 38.9401 101.937 38.7219C101.628 38.5038 101.391 38.1938 101.258 37.8333L98.308 29.9301C98.2482 29.7708 98.1568 29.6262 98.0396 29.5054C97.9225 29.3847 97.7821 29.2905 97.6275 29.229L89.9545 26.1874C89.6049 26.0492 89.3043 25.8051 89.0922 25.4872C88.8802 25.1693 88.7667 24.7926 88.7667 24.4069C88.7667 24.0212 88.8802 23.6445 89.0922 23.3266C89.3043 23.0088 89.6049 22.7646 89.9545 22.6264L97.6253 19.5871C97.7799 19.5256 97.9202 19.4314 98.0374 19.3107C98.1546 19.19 98.246 19.0453 98.3057 18.8861L101.258 10.9805C101.392 10.6204 101.629 10.3106 101.937 10.0922C102.246 9.87368 102.612 9.75671 102.986 9.75671C103.36 9.75671 103.726 9.87368 104.034 10.0922C104.343 10.3106 104.58 10.6204 104.714 10.9805L107.664 18.8838C107.724 19.043 107.815 19.1877 107.932 19.3084C108.049 19.4291 108.19 19.5233 108.344 19.5849L115.971 22.6081C116.335 22.747 116.648 22.998 116.868 23.327C117.089 23.656 117.205 24.0469 117.202 24.4466C117.197 24.8256 117.081 25.1941 116.869 25.5045C116.658 25.8149 116.361 26.0528 116.017 26.1874L108.347 29.2267C108.192 29.2882 108.052 29.3824 107.935 29.5031C107.817 29.6239 107.726 29.7685 107.666 29.9278L104.714 37.8333C104.581 38.1938 104.344 38.5038 104.035 38.7219C103.726 38.9401 103.36 39.0559 102.986 39.0539Z" fill="#31C3F3"/>
<path d="M94.1076 13.4231C93.8881 13.4231 93.6737 13.3545 93.4928 13.2265C93.3118 13.0985 93.1727 12.917 93.0939 12.7059L91.8454 9.36127C91.8184 9.28812 91.7766 9.22169 91.7229 9.16634C91.6692 9.11098 91.6047 9.06796 91.5337 9.04008L88.2874 7.75379C88.0826 7.67252 87.9064 7.52923 87.7822 7.34278C87.658 7.15634 87.5915 6.9355 87.5915 6.70935C87.5915 6.4832 87.658 6.26236 87.7822 6.07592C87.9064 5.88948 88.0826 5.74618 88.2874 5.66491L91.5337 4.37863C91.6046 4.35062 91.669 4.30755 91.7227 4.25221C91.7764 4.19687 91.8182 4.13051 91.8454 4.05744L93.0828 0.742539C93.1526 0.547386 93.2726 0.375514 93.4301 0.245396C93.5876 0.115278 93.7765 0.0318333 93.9765 0.00403075C94.2167 -0.0260511 94.4598 0.0273371 94.6671 0.15573C94.8745 0.284122 95.0344 0.48017 95.1213 0.712785L96.3698 4.05744C96.397 4.13051 96.4388 4.19687 96.4925 4.25221C96.5462 4.30755 96.6106 4.35062 96.6815 4.37863L99.9278 5.66491C100.133 5.74618 100.309 5.88948 100.433 6.07592C100.557 6.26236 100.624 6.4832 100.624 6.70935C100.624 6.9355 100.557 7.15634 100.433 7.34278C100.309 7.52923 100.133 7.67252 99.9278 7.75379L96.6815 9.04008C96.6105 9.06796 96.5461 9.11098 96.4923 9.16634C96.4386 9.22169 96.3968 9.28812 96.3698 9.36127L95.1213 12.7059C95.0425 12.917 94.9034 13.0985 94.7224 13.2265C94.5415 13.3545 94.3271 13.4231 94.1076 13.4231Z" fill="#31C3F3"/>
<path d="M117.204 19.5237C116.964 19.5236 116.73 19.4488 116.533 19.309C116.336 19.1693 116.184 18.9713 116.098 18.741L114.407 14.2118C114.377 14.132 114.332 14.0596 114.273 13.9991C114.214 13.9387 114.144 13.8916 114.066 13.8609L109.671 12.1185C109.447 12.0299 109.255 11.8736 109.12 11.6703C108.984 11.467 108.912 11.2262 108.912 10.9796C108.912 10.733 108.984 10.4922 109.12 10.2889C109.255 10.0856 109.447 9.9293 109.671 9.84064L114.066 8.09826C114.144 8.0676 114.214 8.02053 114.273 7.96008C114.332 7.89962 114.377 7.82715 114.407 7.74734L116.086 3.25025C116.162 3.03759 116.293 2.85031 116.465 2.70832C116.637 2.56633 116.843 2.47496 117.061 2.44391C117.323 2.41122 117.588 2.46965 117.814 2.60993C118.04 2.75021 118.214 2.9643 118.309 3.21821L120 7.74734C120.03 7.82715 120.076 7.89962 120.134 7.96008C120.193 8.02053 120.263 8.0676 120.341 8.09826L124.737 9.84064C124.96 9.9293 125.152 10.0856 125.288 10.2889C125.423 10.4922 125.495 10.733 125.495 10.9796C125.495 11.2262 125.423 11.467 125.288 11.6703C125.152 11.8736 124.96 12.0299 124.737 12.1185L120.341 13.8609C120.263 13.8916 120.193 13.9387 120.134 13.9991C120.076 14.0596 120.03 14.132 120 14.2118L118.309 18.741C118.223 18.9713 118.072 19.1693 117.874 19.309C117.677 19.4488 117.443 19.5236 117.204 19.5237Z" fill="#31C3F3"/>
</g>
<path d="M109.107 44.6312C106.566 45.6233 103.802 46.1678 100.91 46.1678C88.4609 46.1678 78.3689 36.0759 78.3689 23.6268C78.3689 21.1194 78.7783 18.7077 79.5339 16.4547H16.8935C7.8396 16.4547 0.5 23.7943 0.5 32.8482V108.668C0.5 117.722 7.8396 125.061 16.8935 125.061H92.7132C101.767 125.061 109.107 117.722 109.107 108.668V44.6312Z" fill="#6A53E7"/>
<g clip-path="url(#clip1_1_447)">
<path fill-rule="evenodd" clip-rule="evenodd" d="M44.3724 95.7996C46.9373 96.8437 49.6511 97.4764 52.4136 97.6744V105.595C49.6861 105.447 46.9864 104.972 44.3724 104.18V95.7996ZM33.4416 64.8208L36.0315 58.5451L39.9339 49.0661L44.3381 38.3732H44.3724V38.365C46.9874 37.5771 49.6866 37.1018 52.4136 36.9492V88.9368H44.3724V59.3812L42.1353 64.8208L38.8235 72.8557L36.0315 79.6321L33.0188 86.9457L29.628 95.1662C27.442 92.8957 25.5725 90.3409 24.0701 87.5709C21.6189 83.0359 20.2278 78.0049 20.0014 72.8557C19.9746 72.3274 19.9656 71.7998 19.9656 71.2715C19.9666 69.107 20.1701 66.9474 20.5734 64.8208C22.3803 55.3067 28.1157 47.1742 36.0323 42.1846V52.1644C33.4502 54.6325 31.3962 57.5984 29.9943 60.8826C28.5924 64.1668 27.8719 67.7011 27.8763 71.2715C27.8763 71.7998 27.8934 72.3274 27.9203 72.8557C28.0056 74.211 28.191 75.5582 28.4751 76.8862L30.1306 72.8557L33.4416 64.8208Z" fill="#FEFEFE"/>
<path fill-rule="evenodd" clip-rule="evenodd" d="M64.2088 95.7994C61.6439 96.8434 58.9301 97.4762 56.1676 97.6741V105.595C58.895 105.446 61.5947 104.971 64.2088 104.179C77.8555 100.043 87.9108 87.669 88.5797 72.857C88.5976 72.3286 88.6155 71.8011 88.6155 71.2728C88.6146 69.1083 88.4111 66.9486 88.0078 64.822H67.9605V72.857H80.652C80.0442 83.26 73.4184 92.043 64.208 95.8008L64.2088 95.7994ZM64.2088 46.7432C70.7372 49.4151 75.936 54.5689 78.6616 61.0709H87.0734C83.6997 50.2193 75.0963 41.665 64.2088 38.3648C61.5936 37.5776 58.8945 37.1024 56.1676 36.949V88.9365H64.2088V46.7432Z" fill="#FEFEFE"/>
</g>
<defs>
<clipPath id="clip0_1_447">
<rect width="37.9099" height="39.0586" fill="white" transform="translate(87.5901)"/>
</clipPath>
<clipPath id="clip1_1_447">
<rect width="68.6476" height="68.6476" fill="white" transform="matrix(-1 0 0 1 88.6147 36.9463)"/>
</clipPath>
</defs>
</svg>
