<svg width="23" height="20" viewBox="0 0 23 20" fill="none" xmlns="http://www.w3.org/2000/svg">
<path d="M8.5 13C8.30222 13 8.10888 13.0586 7.94443 13.1685C7.77998 13.2784 7.65181 13.4346 7.57612 13.6173C7.50043 13.8 7.48063 14.0011 7.51921 14.1951C7.5578 14.3891 7.65304 14.5673 7.79289 14.7071C7.93275 14.847 8.11093 14.9422 8.30491 14.9808C8.49889 15.0194 8.69996 14.9996 8.88268 14.9239C9.06541 14.8482 9.22159 14.72 9.33147 14.5556C9.44135 14.3911 9.5 14.1978 9.5 14C9.5 13.7348 9.39464 13.4804 9.20711 13.2929C9.01957 13.1054 8.76522 13 8.5 13ZM1.5 12C1.23478 12 0.98043 12.1054 0.792893 12.2929C0.605357 12.4804 0.5 12.7348 0.5 13V15C0.5 15.2652 0.605357 15.5196 0.792893 15.7071C0.98043 15.8946 1.23478 16 1.5 16C1.76522 16 2.01957 15.8946 2.20711 15.7071C2.39464 15.5196 2.5 15.2652 2.5 15V13C2.5 12.7348 2.39464 12.4804 2.20711 12.2929C2.01957 12.1054 1.76522 12 1.5 12ZM21.5 12C21.2348 12 20.9804 12.1054 20.7929 12.2929C20.6054 12.4804 20.5 12.7348 20.5 13V15C20.5 15.2652 20.6054 15.5196 20.7929 15.7071C20.9804 15.8946 21.2348 16 21.5 16C21.7652 16 22.0196 15.8946 22.2071 15.7071C22.3946 15.5196 22.5 15.2652 22.5 15V13C22.5 12.7348 22.3946 12.4804 22.2071 12.2929C22.0196 12.1054 21.7652 12 21.5 12ZM16.5 5H12.5V3.72C12.8023 3.54549 13.0536 3.29491 13.2291 2.99317C13.4045 2.69143 13.4979 2.34903 13.5 2C13.5 1.46957 13.2893 0.960859 12.9142 0.585786C12.5391 0.210714 12.0304 0 11.5 0C10.9696 0 10.4609 0.210714 10.0858 0.585786C9.71071 0.960859 9.5 1.46957 9.5 2C9.50211 2.34903 9.59552 2.69143 9.77095 2.99317C9.94638 3.29491 10.1977 3.54549 10.5 3.72V5H6.5C5.70435 5 4.94129 5.31607 4.37868 5.87868C3.81607 6.44129 3.5 7.20435 3.5 8V17C3.5 17.7956 3.81607 18.5587 4.37868 19.1213C4.94129 19.6839 5.70435 20 6.5 20H16.5C17.2956 20 18.0587 19.6839 18.6213 19.1213C19.1839 18.5587 19.5 17.7956 19.5 17V8C19.5 7.20435 19.1839 6.44129 18.6213 5.87868C18.0587 5.31607 17.2956 5 16.5 5ZM13.22 7L12.72 9H10.28L9.78 7H13.22ZM17.5 17C17.5 17.2652 17.3946 17.5196 17.2071 17.7071C17.0196 17.8946 16.7652 18 16.5 18H6.5C6.23478 18 5.98043 17.8946 5.79289 17.7071C5.60536 17.5196 5.5 17.2652 5.5 17V8C5.5 7.73478 5.60536 7.48043 5.79289 7.29289C5.98043 7.10536 6.23478 7 6.5 7H7.72L8.5 10.24C8.55475 10.4619 8.68385 10.6583 8.86579 10.7966C9.04774 10.9349 9.27157 11.0067 9.5 11H13.5C13.7284 11.0067 13.9523 10.9349 14.1342 10.7966C14.3162 10.6583 14.4452 10.4619 14.5 10.24L15.28 7H16.5C16.7652 7 17.0196 7.10536 17.2071 7.29289C17.3946 7.48043 17.5 7.73478 17.5 8V17ZM14.5 13C14.3022 13 14.1089 13.0586 13.9444 13.1685C13.78 13.2784 13.6518 13.4346 13.5761 13.6173C13.5004 13.8 13.4806 14.0011 13.5192 14.1951C13.5578 14.3891 13.653 14.5673 13.7929 14.7071C13.9327 14.847 14.1109 14.9422 14.3049 14.9808C14.4989 15.0194 14.7 14.9996 14.8827 14.9239C15.0654 14.8482 15.2216 14.72 15.3315 14.5556C15.4414 14.3911 15.5 14.1978 15.5 14C15.5 13.7348 15.3946 13.4804 15.2071 13.2929C15.0196 13.1054 14.7652 13 14.5 13Z" fill="#201D2F"/>
</svg>
