<svg width="18" height="18" viewBox="0 0 18 18" fill="none" xmlns="http://www.w3.org/2000/svg">
<path d="M17.3334 9.00521C17.3334 11.2153 16.4554 13.335 14.8926 14.8978C13.3298 16.4606 11.2102 17.3385 9.00002 17.3385C6.78988 17.3385 4.67027 16.4606 3.10746 14.8978C1.54466 13.335 0.666687 11.2153 0.666687 9.00521C0.666687 6.79507 1.54466 4.67546 3.10746 3.11265C4.67027 1.54985 6.78988 0.671875 9.00002 0.671875C11.2102 0.671875 13.3298 1.54985 14.8926 3.11265C16.4554 4.67546 17.3334 6.79507 17.3334 9.00521ZM9.00002 4.31771C9.00002 4.17957 8.94515 4.0471 8.84747 3.94942C8.7498 3.85175 8.61732 3.79688 8.47919 3.79688C8.34105 3.79688 8.20858 3.85175 8.1109 3.94942C8.01323 4.0471 7.95835 4.17957 7.95835 4.31771V10.0469C7.95838 10.1387 7.98268 10.2288 8.02878 10.3082C8.07487 10.3876 8.14114 10.4534 8.22085 10.499L11.8667 12.5823C11.9863 12.647 12.1265 12.6623 12.2573 12.6249C12.3881 12.5876 12.4991 12.5006 12.5665 12.3825C12.634 12.2644 12.6526 12.1246 12.6184 11.993C12.5842 11.8614 12.4998 11.7484 12.3834 11.6781L9.00002 9.74479V4.31771Z" fill="#201D2F"/>
</svg>
