<svg width="20" height="20" viewBox="0 0 20 20" fill="none" xmlns="http://www.w3.org/2000/svg">
<g opacity="0.8">
<path d="M10 1.66797C5.40502 1.66797 1.66669 5.4063 1.66669 10.0013C1.66669 14.5963 5.40502 18.3346 10 18.3346C14.595 18.3346 18.3334 14.5963 18.3334 10.0013C18.3334 5.4063 14.595 1.66797 10 1.66797ZM10.8334 15.0013H9.16669V13.3346H10.8334V15.0013ZM11.6467 10.9305C11.4834 11.0621 11.3259 11.188 11.2009 11.313C10.8609 11.6521 10.8342 11.9605 10.8334 11.9738V12.0846H9.16669V11.9455C9.16669 11.8471 9.19085 10.9646 10.0217 10.1338C10.1842 9.9713 10.3859 9.8063 10.5975 9.63464C11.2092 9.1388 11.6109 8.77713 11.6109 8.2788C11.6012 7.85782 11.4271 7.45734 11.1259 7.16307C10.8247 6.86879 10.4203 6.70409 9.9992 6.70419C9.5781 6.7043 9.17377 6.86922 8.87272 7.16365C8.57168 7.45808 8.39782 7.85865 8.38835 8.27964H6.72169C6.72169 6.47214 8.19252 5.0013 10 5.0013C11.8075 5.0013 13.2784 6.47214 13.2784 8.27964C13.2784 9.61047 12.2959 10.4046 11.6467 10.9305Z" fill="#201D2F"/>
</g>
</svg>
