<svg width="16" height="20" viewBox="0 0 16 20" fill="none" xmlns="http://www.w3.org/2000/svg">
<path fill-rule="evenodd" clip-rule="evenodd" d="M6.8 14.9C7.51111 14.3667 8.48889 14.3667 9.2 14.9L12.4 17.3C13.0592 17.7944 14 17.324 14 16.5V3.5C14 2.94772 13.5523 2.5 13 2.5H3C2.44772 2.5 2 2.94772 2 3.5V16.5C2 17.324 2.94076 17.7944 3.6 17.3L6.8 14.9ZM8 16.5L11.2 18.9C13.1777 20.3833 16 18.9721 16 16.5V3.5C16 1.84315 14.6569 0.5 13 0.5H3C1.34315 0.5 0 1.84315 0 3.5V16.5C0 18.9721 2.82229 20.3833 4.8 18.9L8 16.5Z" fill="#201D2F"/>
</svg>
