<svg width="20" height="20" viewBox="0 0 20 20" fill="none" xmlns="http://www.w3.org/2000/svg">
<g opacity="0.8">
<path d="M9.9989 11.8711C11.0344 11.8711 11.8739 11.0316 11.8739 9.99609C11.8739 8.96056 11.0344 8.12109 9.9989 8.12109C8.96337 8.12109 8.1239 8.96056 8.1239 9.99609C8.1239 11.0316 8.96337 11.8711 9.9989 11.8711Z" fill="#201D2F"/>
<path d="M18.3754 11.7148L18.357 11.7L17.1242 10.7332C17.0461 10.6714 16.9838 10.592 16.9424 10.5015C16.901 10.411 16.8816 10.312 16.8859 10.2125V9.76094C16.882 9.66212 16.9016 9.56378 16.9431 9.47401C16.9846 9.38423 17.0468 9.30559 17.1246 9.24453L18.357 8.27735L18.3754 8.2625C18.5654 8.10417 18.693 7.88339 18.7352 7.63964C18.7774 7.39589 18.7316 7.14507 18.6058 6.93203L16.9375 4.04531C16.9355 4.04259 16.9338 4.03972 16.9324 4.03672C16.806 3.82663 16.61 3.66744 16.3784 3.58681C16.1469 3.50618 15.8944 3.50918 15.6648 3.59531L15.6511 3.60039L14.2019 4.18359C14.1105 4.22058 14.0115 4.2353 13.9132 4.22653C13.815 4.21777 13.7202 4.18579 13.6367 4.1332C13.5086 4.05247 13.3784 3.97617 13.2461 3.9043C13.1603 3.85779 13.0866 3.79177 13.0311 3.71156C12.9755 3.63136 12.9396 3.53922 12.9261 3.44258L12.7078 1.89609L12.7031 1.86797C12.6556 1.62844 12.527 1.41257 12.3391 1.25664C12.1511 1.10071 11.9153 1.01422 11.6711 1.01172H8.33044C8.08281 1.01251 7.8434 1.10067 7.65439 1.26067C7.46538 1.42066 7.3389 1.64223 7.29723 1.88633L7.29372 1.9082L7.07614 3.45781C7.06279 3.55418 7.02713 3.6461 6.972 3.72626C6.91687 3.80642 6.84378 3.8726 6.75856 3.91953C6.62497 3.99141 6.4945 4.06758 6.36794 4.14688C6.2846 4.19914 6.19006 4.23088 6.09207 4.2395C5.99408 4.24813 5.89545 4.23339 5.80427 4.19649L4.35388 3.61055L4.3402 3.60508C4.11031 3.51886 3.85746 3.51596 3.62564 3.59689C3.39383 3.67783 3.19773 3.83747 3.07145 4.04805L3.06638 4.05664L1.39567 6.94531C1.26975 7.15857 1.22379 7.40967 1.26601 7.6537C1.30823 7.89774 1.43589 8.1188 1.62614 8.27735L1.6445 8.29219L2.87731 9.25899C2.95538 9.32075 3.01769 9.40015 3.05911 9.49067C3.10053 9.58118 3.11989 9.68024 3.11559 9.77969V10.2313C3.11951 10.3301 3.09991 10.4284 3.05842 10.5182C3.01693 10.608 2.95473 10.6866 2.87692 10.7477L1.6445 11.7148L1.62614 11.7297C1.43607 11.888 1.30852 12.1088 1.2663 12.3526C1.22408 12.5963 1.26994 12.8471 1.39567 13.0602L3.06403 15.9469C3.06595 15.9496 3.06765 15.9525 3.06911 15.9555C3.19553 16.1656 3.39153 16.3247 3.62308 16.4054C3.85464 16.486 4.10712 16.483 4.33669 16.3969L4.35036 16.3918L5.79841 15.8086C5.88988 15.7716 5.98882 15.7569 6.0871 15.7657C6.18537 15.7744 6.28016 15.8064 6.36364 15.859C6.49177 15.94 6.62197 16.0163 6.75427 16.0879C6.84004 16.1344 6.91368 16.2004 6.96925 16.2806C7.02482 16.3608 7.06077 16.453 7.07419 16.5496L7.29138 18.0961L7.29606 18.1242C7.34368 18.3641 7.47256 18.5803 7.66099 18.7363C7.84941 18.8923 8.08584 18.9785 8.33044 18.9805H11.6711C11.9187 18.9797 12.1581 18.8915 12.3471 18.7315C12.5361 18.5715 12.6626 18.35 12.7043 18.1059L12.7078 18.084L12.9254 16.5344C12.9389 16.4378 12.9749 16.3458 13.0304 16.2656C13.0858 16.1854 13.1593 16.1194 13.2449 16.0727C13.3785 16.0008 13.509 15.9246 13.6355 15.8453C13.7189 15.7931 13.8134 15.7613 13.9114 15.7527C14.0094 15.7441 14.108 15.7588 14.1992 15.7957L15.6496 16.3797L15.6632 16.3852C15.8931 16.4715 16.146 16.4745 16.3779 16.3936C16.6097 16.3126 16.8058 16.1529 16.932 15.9422C16.9335 15.9392 16.9352 15.9364 16.9371 15.9336L18.6054 13.0473C18.7316 12.834 18.7777 12.5829 18.7356 12.3387C18.6934 12.0946 18.5657 11.8734 18.3754 11.7148ZM13.1222 10.143C13.0938 10.7479 12.8902 11.3315 12.5362 11.8229C12.1822 12.3142 11.6931 12.6921 11.1283 12.9106C10.5635 13.1292 9.94744 13.1789 9.35493 13.0537C8.76242 12.9286 8.21903 12.634 7.79084 12.2058C7.36266 11.7775 7.06812 11.2341 6.94306 10.6416C6.81799 10.049 6.86777 9.43295 7.08636 8.86819C7.30495 8.30344 7.68292 7.81436 8.17432 7.46043C8.66571 7.10651 9.24935 6.90298 9.85427 6.87461C10.2885 6.85549 10.7221 6.92695 11.1272 7.08444C11.5324 7.24193 11.9004 7.48201 12.2077 7.78941C12.5151 8.0968 12.7551 8.4648 12.9126 8.86999C13.07 9.27518 13.1414 9.70869 13.1222 10.143Z" fill="#201D2F"/>
</g>
</svg>
