<svg width="22" height="22" viewBox="0 0 22 22" fill="none" xmlns="http://www.w3.org/2000/svg">
<path fill-rule="evenodd" clip-rule="evenodd" d="M21.5306 1.59185C21.8235 1.29896 21.8235 0.824087 21.5306 0.531193C21.2377 0.2383 20.7628 0.2383 20.4699 0.531193L16.9809 4.02025C15.183 2.74648 13.1336 2.0415 10.9998 2.0415C7.15186 2.0415 3.64826 4.3101 1.25734 8.06847C0.712142 8.92288 0.464844 10.0175 0.464844 11.0665C0.464844 12.1155 0.712133 13.2101 1.25731 14.0645C2.01266 15.2501 2.88584 16.2939 3.84009 17.1608L0.46967 20.5312C0.176777 20.8241 0.176777 21.299 0.46967 21.5919C0.762563 21.8848 1.23744 21.8848 1.53033 21.5919L9.00033 14.1219L9.00849 14.1136L14.0463 9.0758C14.0511 9.07123 14.0559 9.06658 14.0606 9.06185L21.5306 1.59185ZM13.4845 7.51667L15.9026 5.09849C14.3877 4.08044 12.7128 3.5415 10.9998 3.5415C7.78799 3.5415 4.71174 5.4327 2.52266 8.87405L2.52204 8.87503C2.16745 9.43055 1.96484 10.2257 1.96484 11.0665C1.96484 11.9073 2.16745 12.7025 2.52204 13.258L2.52238 13.2585C3.22599 14.3629 4.03331 15.319 4.90212 16.0988L7.45499 13.5459C6.96041 12.8432 6.66992 11.9881 6.66992 11.0615C6.66992 8.66729 8.60571 6.73151 10.9999 6.73151C11.9266 6.73151 12.7817 7.02203 13.4845 7.51667ZM8.16992 11.0615C8.16992 9.49572 9.43414 8.23151 10.9999 8.23151C11.5103 8.23151 11.9864 8.36543 12.399 8.6018L8.54021 12.4606C8.30385 12.048 8.16992 11.5719 8.16992 11.0615ZM18.58 6.40713C18.9028 6.14752 19.3749 6.19871 19.6345 6.52147C20.0184 6.99874 20.3955 7.51159 20.7434 8.05967C21.288 8.91392 21.5351 10.008 21.5351 11.0565C21.5351 12.1056 21.2878 13.2002 20.7426 14.0546C18.3517 17.8129 14.8481 20.0815 11.0001 20.0815C9.66358 20.0815 8.35494 19.7989 7.12907 19.2828C6.74732 19.122 6.56815 18.6823 6.72889 18.3005C6.88963 17.9187 7.32941 17.7396 7.71116 17.9003C8.76529 18.3442 9.87665 18.5815 11.0001 18.5815C14.212 18.5815 17.2882 16.6903 19.4773 13.249L19.4779 13.248C19.8325 12.6925 20.0351 11.8973 20.0351 11.0565C20.0351 10.2158 19.8325 9.42059 19.4779 8.86507L19.4769 8.86341C19.1647 8.37149 18.8218 7.90434 18.4657 7.46161C18.2061 7.13885 18.2573 6.66674 18.58 6.40713ZM15.2472 11.8976C15.3223 11.4902 15.0529 11.0991 14.6456 11.024C14.2382 10.9489 13.8471 11.2182 13.772 11.6255C13.5684 12.7297 12.6577 13.6404 11.5536 13.844C11.1462 13.9191 10.8769 14.3102 10.952 14.7176C11.0271 15.1249 11.4182 15.3942 11.8256 15.3191C13.5414 15.0027 14.9308 13.6134 15.2472 11.8976Z" fill="#94A3B8"/>
</svg>
